<svg width="138" height="48" viewBox="0 0 138 48" fill="none" xmlns="http://www.w3.org/2000/svg">
<path d="M6.68683 3.63037L1.43311 5.34977V17.7677C1.43311 29.9946 1.52863 30.3766 4.29878 34.8662C6.40027 38.2094 8.69278 40.311 12.5137 42.4124C17.4809 45.087 17.9585 45.1826 21.1107 43.9408C26.0779 41.9348 33.2421 34.6751 34.3883 30.6632C34.866 28.7527 35.3435 22.3527 35.3435 16.4303V5.63634L31.8092 4.10798C26.3644 1.81544 13.1824 1.52888 6.68683 3.63037ZM21.0152 11.4632C22.0659 12.514 22.9256 14.1378 22.9256 15.0931C22.9256 16.2393 23.9764 17.099 26.0779 17.6722C28.7525 18.5319 29.1346 19.0094 29.1346 21.9707C29.1346 24.8363 28.7525 25.4095 26.1734 26.1736C24.0719 26.8423 23.0211 27.893 22.3525 29.9946C20.8242 35.1528 13.3734 34.2931 13.3734 29.0393C13.3734 27.3199 12.8003 26.7467 11.2719 26.7467C8.88385 26.7467 5.73161 24.1676 5.73161 22.1617C5.73161 19.8691 8.69278 17.1945 11.1764 17.1945C12.8003 17.1945 13.3734 16.6214 13.3734 15.0931C13.3734 12.705 15.9525 9.55272 17.8629 9.55272C18.5316 9.55272 19.9645 10.4124 21.0152 11.4632Z" fill="#2B64AF"/>
<path d="M21.0152 11.4632C22.066 12.514 22.9257 14.1378 22.9257 15.0931C22.9257 16.2393 23.9765 17.0991 26.078 17.6722C28.7526 18.5319 29.1347 19.0095 29.1347 21.9707C29.1347 24.8364 28.7526 25.4095 26.1735 26.1736C24.072 26.8423 23.0212 27.893 22.3526 29.9946C20.8243 35.1528 13.3735 34.2931 13.3735 29.0393C13.3735 27.3199 12.8004 26.7468 11.272 26.7468C8.88393 26.7468 5.73169 24.1677 5.73169 22.1617C5.73169 19.8692 8.69286 17.1945 11.1765 17.1945C12.8004 17.1945 13.3735 16.6214 13.3735 15.0931C13.3735 12.705 15.9526 9.55273 17.863 9.55273C18.5317 9.55273 19.9645 10.4124 21.0152 11.4632Z" fill="#2B64AF"/>
<path d="M13.6123 13.9692C13.6123 11.3973 15.6972 9.3125 18.269 9.3125C20.8409 9.3125 22.9257 11.3973 22.9257 13.9692V29.7304C22.9257 32.3023 20.8409 34.3871 18.269 34.3871C15.6972 34.3871 13.6123 32.3023 13.6123 29.7304V13.9692Z" fill="white"/>
<path fill-rule="evenodd" clip-rule="evenodd" d="M22.2093 29.7304V13.9692C22.2093 11.793 20.4452 10.0289 18.269 10.0289C16.0928 10.0289 14.3287 11.793 14.3287 13.9692V29.7304C14.3287 31.9066 16.0928 33.6707 18.269 33.6707C20.4452 33.6707 22.2093 31.9066 22.2093 29.7304ZM18.269 9.3125C15.6972 9.3125 13.6123 11.3973 13.6123 13.9692V29.7304C13.6123 32.3023 15.6972 34.3871 18.269 34.3871C20.8409 34.3871 22.9257 32.3023 22.9257 29.7304V13.9692C22.9257 11.3973 20.8409 9.3125 18.269 9.3125Z" fill="white"/>
<path d="M26.5163 17.3317C29.0716 17.3487 31.1293 19.4339 31.1123 21.9891C31.0953 24.5444 29.0101 26.602 26.4548 26.5851L10.3585 26.4781C7.80326 26.4611 5.74558 24.3759 5.76256 21.8207C5.77953 19.2654 7.86473 17.2077 10.42 17.2247L26.5163 17.3317Z" fill="white"/>
<path d="M22.9257 26.5065V17.7341V14.0085C22.9257 11.415 20.8232 9.3125 18.2297 9.3125C15.5899 9.3125 13.4687 11.4876 13.5352 14.1265L13.6122 17.1931H10.2127C7.57068 17.1931 5.45788 19.3887 5.55942 22.0288C5.65559 24.5291 7.71053 26.5065 10.2127 26.5065H22.9257Z" fill="#329ED8"/>
<path fill-rule="evenodd" clip-rule="evenodd" d="M18.2298 9.6715C15.7913 9.6715 13.832 11.6807 13.8933 14.1184L13.9796 17.5521H10.2128C7.77399 17.5521 5.8237 19.5788 5.91742 22.0158L5.92444 22.1982C6.00929 24.4043 7.82242 26.1491 10.0302 26.1491H13.9705V26.8655H10.0302C7.43749 26.8655 5.3082 24.8166 5.20855 22.2257L5.20154 22.0433C5.09218 19.2002 7.3675 16.8357 10.2128 16.8357H13.245L13.1771 14.1364C13.1056 11.2961 15.3886 8.95508 18.2298 8.95508C21.0211 8.95508 23.2839 11.218 23.2839 14.0093V17.5521H22.5675V14.0093C22.5675 11.6136 20.6255 9.6715 18.2298 9.6715Z" fill="white"/>
<path d="M122.916 28.9475V14.3281H125.893V31.5222H123.207L122.916 28.9475ZM115.136 25.6117V25.3767C115.136 24.4513 115.24 23.6117 115.45 22.8579C115.666 22.0968 115.98 21.4438 116.39 20.899C116.801 20.3543 117.296 19.9326 117.879 19.6341C118.469 19.3356 119.136 19.1863 119.883 19.1863C120.606 19.1863 121.237 19.3319 121.774 19.6229C122.319 19.914 122.782 20.3281 123.163 20.8654C123.55 21.4028 123.86 22.0408 124.092 22.7796C124.323 23.511 124.491 24.3169 124.595 25.1975V25.8356C124.491 26.6938 124.323 27.4811 124.092 28.1975C123.86 28.914 123.55 29.5408 123.163 30.0781C122.782 30.608 122.319 31.0184 121.774 31.3094C121.23 31.6005 120.591 31.746 119.86 31.746C119.121 31.746 118.457 31.5931 117.867 31.2871C117.286 30.9811 116.789 30.552 116.379 29.9998C115.976 29.4476 115.666 28.7983 115.45 28.052C115.24 27.3057 115.136 26.4923 115.136 25.6117ZM118.102 25.3767V25.6117C118.102 26.1341 118.148 26.6229 118.237 27.0781C118.327 27.5334 118.472 27.9363 118.673 28.2871C118.875 28.6303 119.133 28.899 119.446 29.0931C119.767 29.2871 120.155 29.3841 120.61 29.3841C121.192 29.3841 121.669 29.2572 122.043 29.0035C122.424 28.7423 122.718 28.3878 122.928 27.9401C123.136 27.4849 123.271 26.9736 123.33 26.4065V24.649C123.3 24.2012 123.222 23.7871 123.095 23.4065C122.976 23.0259 122.804 22.6975 122.58 22.4214C122.364 22.1453 122.095 21.9289 121.774 21.7721C121.453 21.6155 121.073 21.5371 120.633 21.5371C120.177 21.5371 119.789 21.6378 119.469 21.8393C119.148 22.0333 118.886 22.3057 118.685 22.6565C118.484 23.0072 118.334 23.4139 118.237 23.8766C118.148 24.3393 118.102 24.8393 118.102 25.3767Z" fill="#2B64AF"/>
<path d="M113.518 19.4105V31.5225H110.552V19.4105H113.518ZM110.35 16.2426C110.35 15.8023 110.499 15.4366 110.798 15.1456C111.104 14.8546 111.515 14.709 112.03 14.709C112.544 14.709 112.951 14.8546 113.25 15.1456C113.556 15.4366 113.708 15.8023 113.708 16.2426C113.708 16.6754 113.556 17.0373 113.25 17.3284C112.951 17.6195 112.544 17.765 112.03 17.765C111.515 17.765 111.104 17.6195 110.798 17.3284C110.499 17.0373 110.35 16.6754 110.35 16.2426Z" fill="#2B64AF"/>
<path d="M104.68 30.0779C104.68 29.6301 104.833 29.2532 105.139 28.9472C105.445 28.6413 105.859 28.4883 106.381 28.4883C106.904 28.4883 107.318 28.6413 107.624 28.9472C107.93 29.2532 108.083 29.6301 108.083 30.0779C108.083 30.5182 107.93 30.8913 107.624 31.1973C107.318 31.4957 106.904 31.645 106.381 31.645C105.859 31.645 105.445 31.4957 105.139 31.1973C104.833 30.8913 104.68 30.5182 104.68 30.0779Z" fill="#2B64AF"/>
<path d="M103.274 19.4112V21.5381H96.334V19.4112H103.274ZM98.1917 16.4336H101.158V28.0306C101.158 28.3888 101.207 28.6649 101.304 28.8589C101.401 29.053 101.547 29.1836 101.74 29.2507C101.934 29.3179 102.166 29.3515 102.434 29.3515C102.628 29.3515 102.808 29.3403 102.972 29.3179C103.136 29.2955 103.274 29.2732 103.386 29.2507L103.397 31.4672C103.151 31.5493 102.871 31.6164 102.558 31.6686C102.252 31.7209 101.905 31.747 101.517 31.747C100.852 31.747 100.27 31.635 99.7699 31.4112C99.2706 31.1798 98.8823 30.8105 98.6057 30.303C98.3299 29.7881 98.1917 29.109 98.1917 28.2657V16.4336Z" fill="#2B64AF"/>
<path d="M93.0923 28.2099C93.0923 27.9562 93.0257 27.7286 92.891 27.5271C92.7571 27.3256 92.5027 27.1427 92.1302 26.9785C91.7641 26.807 91.2268 26.6465 90.5183 26.4973C89.8914 26.3629 89.3125 26.195 88.7831 25.9935C88.2529 25.792 87.798 25.5495 87.4169 25.2659C87.0365 24.9749 86.7377 24.6353 86.5214 24.2473C86.3129 23.8517 86.2083 23.3965 86.2083 22.8816C86.2083 22.3816 86.3165 21.9114 86.5328 21.4712C86.7492 21.0234 87.063 20.6316 87.4735 20.2957C87.8833 19.9525 88.3833 19.6838 88.9729 19.4898C89.5626 19.2883 90.2267 19.1875 90.966 19.1875C91.9955 19.1875 92.8796 19.3554 93.6189 19.6913C94.3647 20.0271 94.9357 20.4898 95.3311 21.0793C95.7266 21.6614 95.9243 22.3181 95.9243 23.0495H92.9691C92.9691 22.7286 92.8946 22.4375 92.7456 22.1763C92.6037 21.9151 92.3838 21.7062 92.0851 21.5495C91.7863 21.3853 91.4095 21.3032 90.9546 21.3032C90.544 21.3032 90.1973 21.3704 89.9136 21.5047C89.6371 21.639 89.4286 21.8144 89.2867 22.0308C89.1449 22.2472 89.074 22.486 89.074 22.7472C89.074 22.9412 89.1112 23.1166 89.1857 23.2734C89.2681 23.4226 89.3985 23.5607 89.5776 23.6875C89.7567 23.8144 89.9996 23.93 90.3055 24.0346C90.6186 24.139 91.0033 24.2398 91.4582 24.3368C92.3609 24.5159 93.1482 24.7547 93.8202 25.0532C94.4994 25.3443 95.0288 25.7323 95.41 26.2174C95.7904 26.7024 95.9809 27.3219 95.9809 28.0756C95.9809 28.6129 95.8649 29.1054 95.6335 29.5532C95.4021 29.9935 95.0661 30.3778 94.6262 30.7062C94.1856 31.0345 93.6597 31.292 93.0479 31.4786C92.4361 31.6577 91.7455 31.7472 90.9768 31.7472C89.8649 31.7472 88.9249 31.5495 88.1562 31.154C87.3875 30.751 86.8051 30.2435 86.4096 29.6316C86.0141 29.0122 85.8164 28.3704 85.8164 27.7062H88.6484C88.6706 28.1763 88.7974 28.5532 89.0288 28.8368C89.2602 29.1203 89.5518 29.3256 89.9021 29.4525C90.2603 29.5718 90.6372 29.6316 91.0326 29.6316C91.4804 29.6316 91.8572 29.5718 92.1631 29.4525C92.4691 29.3256 92.7005 29.1577 92.8574 28.9487C93.0143 28.7323 93.0923 28.486 93.0923 28.2099Z" fill="#2B64AF"/>
<path d="M84.2991 19.4105V31.5225H81.3324V19.4105H84.2991ZM81.1311 16.2426C81.1311 15.8023 81.2801 15.4366 81.5789 15.1456C81.8848 14.8546 82.2953 14.709 82.8104 14.709C83.3248 14.709 83.7317 14.8546 84.0304 15.1456C84.3364 15.4366 84.489 15.8023 84.489 16.2426C84.489 16.6754 84.3364 17.0373 84.0304 17.3284C83.7317 17.6195 83.3248 17.765 82.8104 17.765C82.2953 17.765 81.8848 17.6195 81.5789 17.3284C81.2801 17.0373 81.1311 16.6754 81.1311 16.2426Z" fill="#2B64AF"/>
<path d="M76.7143 28.2099C76.7143 27.9562 76.647 27.7286 76.513 27.5271C76.3783 27.3256 76.1247 27.1427 75.7515 26.9785C75.3861 26.807 74.8488 26.6465 74.1395 26.4973C73.5126 26.3629 72.9345 26.195 72.4043 25.9935C71.8749 25.792 71.4196 25.5495 71.0389 25.2659C70.6584 24.9749 70.3598 24.6353 70.1434 24.2473C69.9345 23.8517 69.83 23.3965 69.83 22.8816C69.83 22.3816 69.9382 21.9114 70.1547 21.4712C70.371 21.0234 70.6844 20.6316 71.0949 20.2957C71.5054 19.9525 72.0053 19.6838 72.5949 19.4898C73.1845 19.2883 73.8486 19.1875 74.5873 19.1875C75.6175 19.1875 76.5015 19.3554 77.2402 19.6913C77.9867 20.0271 78.5577 20.4898 78.9531 21.0793C79.3486 21.6614 79.5463 22.3181 79.5463 23.0495H76.5911C76.5911 22.7286 76.5166 22.4375 76.3676 22.1763C76.2257 21.9151 76.0051 21.7062 75.707 21.5495C75.4083 21.3853 75.0315 21.3032 74.5765 21.3032C74.166 21.3032 73.8186 21.3704 73.5356 21.5047C73.259 21.639 73.0498 21.8144 72.9087 22.0308C72.7669 22.2472 72.6959 22.486 72.6959 22.7472C72.6959 22.9412 72.7332 23.1166 72.8077 23.2734C72.8894 23.4226 73.0205 23.5607 73.1996 23.6875C73.3787 23.8144 73.6208 23.93 73.9267 24.0346C74.2405 24.139 74.6245 24.2398 75.0802 24.3368C75.9829 24.5159 76.7702 24.7547 77.4422 25.0532C78.1214 25.3443 78.6508 25.7323 79.0312 26.2174C79.4123 26.7024 79.6022 27.3219 79.6022 28.0756C79.6022 28.6129 79.4869 29.1054 79.2555 29.5532C79.024 29.9935 78.688 30.3778 78.2482 30.7062C77.8076 31.0345 77.2817 31.292 76.6699 31.4786C76.0574 31.6577 75.3675 31.7472 74.5987 31.7472C73.4869 31.7472 72.5462 31.5495 71.7775 31.154C71.0091 30.751 70.427 30.2435 70.0315 29.6316C69.636 29.0122 69.4382 28.3704 69.4382 27.7062H72.2704C72.2926 28.1763 72.4194 28.5532 72.6508 28.8368C72.8822 29.1203 73.1731 29.3256 73.5241 29.4525C73.8823 29.5718 74.2592 29.6316 74.6546 29.6316C75.1024 29.6316 75.4792 29.5718 75.7851 29.4525C76.091 29.3256 76.3224 29.1577 76.4793 28.9487C76.6362 28.7323 76.7143 28.486 76.7143 28.2099Z" fill="#2B64AF"/>
<path d="M65.6035 28.2099C65.6035 27.9562 65.5363 27.7286 65.402 27.5271C65.2677 27.3256 65.0139 27.1427 64.6408 26.9785C64.2752 26.807 63.7379 26.6465 63.0289 26.4973C62.402 26.3629 61.8237 26.195 61.2938 25.9935C60.7639 25.792 60.3087 25.5495 59.9282 25.2659C59.5475 24.9749 59.2491 24.6353 59.0326 24.2473C58.8237 23.8517 58.7192 23.3965 58.7192 22.8816C58.7192 22.3816 58.8274 21.9114 59.0438 21.4712C59.2602 21.0234 59.5737 20.6316 59.9841 20.2957C60.3945 19.9525 60.8945 19.6838 61.4841 19.4898C62.0737 19.2883 62.7379 19.1875 63.4766 19.1875C64.5065 19.1875 65.3908 19.3554 66.1296 19.6913C66.8759 20.0271 67.4468 20.4898 67.8424 21.0793C68.2378 21.6614 68.4356 22.3181 68.4356 23.0495H65.4804C65.4804 22.7286 65.4057 22.4375 65.2565 22.1763C65.1147 21.9151 64.8946 21.7062 64.596 21.5495C64.2975 21.3853 63.9207 21.3032 63.4655 21.3032C63.055 21.3032 62.708 21.3704 62.4244 21.5047C62.1483 21.639 61.9394 21.8144 61.7976 22.0308C61.6557 22.2472 61.5849 22.486 61.5849 22.7472C61.5849 22.9412 61.6222 23.1166 61.6968 23.2734C61.7789 23.4226 61.9095 23.5607 62.0886 23.6875C62.2677 23.8144 62.5102 23.93 62.8162 24.0346C63.1296 24.139 63.514 24.2398 63.9692 24.3368C64.8722 24.5159 65.6595 24.7547 66.3311 25.0532C67.0102 25.3443 67.5401 25.7323 67.9207 26.2174C68.3013 26.7024 68.4916 27.3219 68.4916 28.0756C68.4916 28.6129 68.3759 29.1054 68.1445 29.5532C67.9132 29.9935 67.5774 30.3778 67.1371 30.7062C66.6968 31.0345 66.1707 31.292 65.5588 31.4786C64.9468 31.6577 64.2565 31.7472 63.4878 31.7472C62.3759 31.7472 61.4356 31.5495 60.6669 31.154C59.8983 30.751 59.3162 30.2435 58.9207 29.6316C58.5251 29.0122 58.3274 28.3704 58.3274 27.7062H61.1595C61.1819 28.1763 61.3088 28.5532 61.5401 28.8368C61.7714 29.1203 62.0624 29.3256 62.4132 29.4525C62.7714 29.5718 63.1483 29.6316 63.5438 29.6316C63.9916 29.6316 64.3684 29.5718 64.6744 29.4525C64.9804 29.3256 65.2117 29.1577 65.3684 28.9487C65.5252 28.7323 65.6035 28.486 65.6035 28.2099Z" fill="#2B64AF"/>
<path d="M51.0227 17.6985L46.3771 31.5231H43.1196L49.2092 15.2246H51.2913L51.0227 17.6985ZM54.9069 31.5231L50.239 17.6985L49.9592 15.2246H52.0524L58.1756 31.5231H54.9069ZM54.6943 25.4672V27.8963H45.9517V25.4672H54.6943Z" fill="#2B64AF"/>
</svg>
